<svg xmlns="http://www.w3.org/2000/svg" xmlns:xlink="http://www.w3.org/1999/xlink" width="331.408" height="255.534" viewBox="0 0 265.12607 204.42685"><defs><symbol overflow="visible" id="g"><path d="M3.531-3.797h2.016C7.203-3.797 9-5.157 9-6.53c0-.922-.938-1.938-2.453-1.938H2.859c-.234 0-.5.156-.5.39 0 .126.266.267.454.267.718 0 .562-.047.562.078 0 .03 0 .078-.047.265L1.703-1.047c-.094.422.047.406-.797.406-.219 0-.515.157-.515.36 0 .14.28.281.343.281.235 0 .47-.031.704-.031h1.39c.235 0 .485.031.703.031.11 0 .39-.14.39-.375 0-.11-.265-.266-.437-.266-.718 0-.578.063-.578-.046 0-.063.016-.157.016-.204l.734-2.906zM4.547-7.5c.11-.438 0-.313.469-.313h1.187c.89 0 1.469.141 1.469 1.032 0 .312-.11 1.218-.656 1.765-.204.22-.657.625-1.75.625H3.78zm0 0"/></symbol><symbol overflow="visible" id="h"><path d="M9.078-8.453c0-.11-.234-.266-.25-.266a.493.493 0 0 0-.297.172l-.687.844C7.516-8.266 6.75-8.72 5.859-8.72 3.281-8.719.438-5.938.438-3.125.438-1.141 2 .25 3.733.25c.97 0 1.907-.438 2.594-1.031 1.047-.875 1.406-2.14 1.406-2.235 0-.109-.25-.265-.28-.265-.11 0-.25.125-.329.297C6.594-1.141 5.141-.391 3.937-.391c-1.265 0-2.203-.656-2.203-2.359 0-.375.079-2.36 1.422-3.922.656-.766 1.672-1.39 2.813-1.39 1.312 0 1.734.937 1.734 2.156 0 .312-.047.578-.047.625 0 .11.297.25.328.25.125 0 .297-.157.344-.375zm0 0"/></symbol><symbol overflow="visible" id="i"><path d="M4.672-4.797c-.219 0-.453.047-.625.188-.063.062-.25.359-.25.546 0 .235.344.532.578.532.281 0 .766-.39.766-.875 0-.563-.704-1.157-1.532-1.157-1.562 0-3.296 1.86-3.296 3.547 0 1.047.812 2.141 2.03 2.141 1.626 0 2.813-1.422 2.813-1.578 0-.063-.234-.281-.281-.281a.548.548 0 0 0-.266.171A2.78 2.78 0 0 1 2.36-.421c-.812 0-.921-.562-.921-1.156 0-.422.156-1.469.578-2.281.312-.563.859-1.172 1.609-1.172.156 0 .64-.125.813.234zm0 0"/></symbol><symbol overflow="visible" id="j"><path d="M3.547-3.89h1.156c.906 0 .813.046.813.406 0 .156-.032.312-.094.578.031-.063-.031.11-.031.14 0 .079.218.266.296.266.094 0 .266-.188.313-.375l.688-2.797c0-.047-.188-.266-.266-.266-.11 0-.297.188-.344.391-.25.89-.312 1-1.36 1h-.89l.735-2.937c.109-.422-.016-.313.468-.313h1.61c1.484 0 1.53.297 1.53 1.156 0 .063 0 .313-.03.625a1.54 1.54 0 0 0-.032.266c0 .094.22.281.297.281.078 0 .281-.203.313-.406l.25-2.094c0-.047.015-.156.015-.187 0-.125-.265-.281-.468-.281H2.844c-.219 0-.516.156-.516.374 0 .126.25.266.453.266.75 0 .578-.062.578.078 0 .063-.015.094-.046.219l-1.61 6.453c-.11.422.031.406-.812.406-.22 0-.516.157-.516.36 0 .14.281.281.36.281.218 0 .453-.031.687-.031h1.547c.265 0 .562.031.828.031.094 0 .406-.14.406-.36 0-.124-.234-.28-.5-.28-.937 0-.812.062-.812-.11 0-.063.03-.156.046-.234l.735-2.907zm0 0"/></symbol><symbol overflow="visible" id="m"><path d="M7.5-6.875c.406-.64.672-.89 1.281-.938.125-.015.375-.156.375-.375 0-.046-.172-.28-.281-.28-.219 0-.734.03-.953.03-.344 0-.703-.03-1.031-.03-.094 0-.391.155-.391.39 0 .11.281.265.328.265.438.032.313.11.313.25 0 .172-.11.344-.125.36L3.266-1.25l.265.11-.828-6.454c0-.343.469-.218.594-.218.187 0 .437-.141.437-.375 0-.126-.28-.282-.312-.282-.203 0-.453.031-.656.031h-.657c-.875 0-1.234-.03-1.25-.03-.078 0-.375.155-.375.374 0 .14.25.281.438.281.61 0 .484-.046.515.266l.954 7.375c.03.25.203.422.375.422a.5.5 0 0 0 .421-.266zm0 0"/></symbol><symbol overflow="visible" id="p"><path d="M3.438-1.578c-.063.203-.016.125-.188.36-.266.327-.672.796-1.234.796-.485 0-.61-.281-.61-.984 0-.657.375-2 .61-2.5.406-.844.812-1.125 1.265-1.125.797 0 .781.828.781.937 0 0 .016.047-.062.188zm1.078-3.047c-.125-.313-.61-.938-1.235-.938-1.344 0-2.969 1.891-2.969 3.657 0 1.187.86 2.031 1.672 2.031.657 0 1.329-.563 1.454-.703.046.344.78.703 1.14.703.36 0 .75-.25.969-.703.234-.5.406-1.235.406-1.281 0-.047-.203-.25-.281-.25-.11 0-.281.203-.328.375-.188.703-.235 1.312-.735 1.312-.343 0-.203-.156-.203-.39 0-.282.032-.407.14-.875.079-.297.141-.563.235-.907.438-1.797.547-2.219.547-2.297 0-.171-.281-.453-.469-.453-.375 0-.64.563-.656.703zm0 0"/></symbol><symbol overflow="visible" id="k"><path d="M2.688-5.266c0-.203-.204-.406-.5-.406-.376.375-.672.516-1.61.516v.625c.406 0 .828 0 1.11-.125v3.812c0 .297.156.219-.594.219H.625v.64C1.141-.03 1.828-.03 2.188-.03c.359 0 1.046 0 1.562.047v-.641h-.469c-.75 0-.594.078-.594-.219zm0 0"/></symbol><symbol overflow="visible" id="l"><path d="M2.375-1.688c.125-.109.469-.375.594-.484.484-.453 1.015-1.031 1.015-1.75 0-.953-.984-1.75-1.968-1.75-.97 0-1.782.922-1.782 1.625 0 .39.5.625.61.625.172 0 .594-.297.594-.61 0-.405-.579-.593-.422-.593.156-.39.515-.406.906-.406.734 0 .937.437.937 1.11 0 .827-.53 1.312-1.468 2.265L.375-.61C.281-.531.235-.375.235 0h3.484l.297-1.797H3.39c-.047.344-.063.625-.157.766-.046.062-.515.015-.64.015H1.172l.125.313zm0 0"/></symbol><symbol overflow="visible" id="n"><path d="M2.016-2.656c.625 0 .843.281.843 1.11 0 1-.375 1.109-.796 1.109-.438 0-.922-.11-.985-.22-.047 0 .328-.359.328-.624 0-.25-.36-.625-.625-.625-.203 0-.625.328-.625.64 0 .75 1 1.438 1.922 1.438 1.047 0 1.985-.922 1.985-1.719 0-.656-.72-1.453-1.532-1.625v.36c.625-.22 1.281-.938 1.281-1.579 0-.64-.89-1.28-1.718-1.28-.86 0-1.703.655-1.703 1.25 0 .296.39.609.609.609.25 0 .578-.36.578-.594 0-.282-.437-.578-.25-.578.11-.141.594-.11.734-.11.204 0 .626-.125.626.703 0 .563-.172.766-.282.891-.25.25-.297.203-.781.234-.156.016-.406.204-.406.313 0 .11.265.297.406.297zm0 0"/></symbol><symbol overflow="visible" id="o"><path d="M3.328-5.344c0-.156-.187-.406-.36-.406a.428.428 0 0 0-.327.188L.047-1.797v.484h2.25v.485c0 .297.172.203-.453.203h-.375v.64c.875-.046.89-.046 1.343-.046.454 0 .47 0 1.329.047v-.641h-.36c-.625 0-.453.094-.453-.203v-.485h.844v-.625h-.844zm-.984.657v2.75H.859l1.813-2.625zm0 0"/></symbol><symbol overflow="visible" id="q"><path d="M2.094-8.672c0-.203-.188-.562-.438-.562-.234 0-.437.359-.437.562V2.422c0 .219.203.562.437.562.25 0 .438-.343.438-.562zm0 0"/></symbol><symbol overflow="visible" id="r"><path d="M-.375-8.906c-.063-.203-.344-.5-.578-.422-.235.062-.328.469-.266.672L1.844 2c.062.203.343.484.578.422.234-.078.328-.469.265-.672zm0 0"/></symbol><symbol overflow="visible" id="s"><path d="M2.344-4.625l1.937-.563c1.594-.453 2.953-2.25 2.578-3.578-.25-.89-1.437-1.593-2.89-1.171L.422-8.922c-.234.063-.453.281-.39.5.046.125.327.188.515.125.687-.187.531-.203.578-.078 0 .031.016.078.016.281l.218 6.625c.016.438.157.375-.656.61-.219.062-.469.28-.406.484.047.125.344.188.406.172.235-.063.438-.156.656-.219l1.344-.39c.219-.063.485-.094.688-.157.109-.031.343-.25.265-.469-.031-.109-.312-.171-.484-.125-.688.188-.531.204-.563.11-.015-.063-.03-.172-.046-.219l-.094-2.984zm-.031-3.828c-.032-.453-.094-.313.359-.438l1.14-.328c.844-.25 1.454-.265 1.688.594.094.297.234 1.203-.125 1.86-.156.28-.469.796-1.516 1.093l-1.421.406zm0 0"/></symbol><symbol overflow="visible" id="t"><path d="M2.328-4.719l1.11-.312c.874-.25.796-.172.906.172.031.14.047.296.078.562v.156c.031.079.281.188.36.172.093-.031.202-.25.187-.453l-.11-2.875c-.015-.047-.25-.203-.328-.172-.11.032-.218.25-.218.469.015.922-.016 1.031-1.032 1.328l-.844.234-.109-3c-.015-.437-.11-.312.36-.453l1.546-.437c1.422-.406 1.563-.125 1.797.687.016.063.078.313.14.61 0 .062.032.219.048.265.015.094.281.22.36.204.077-.032.202-.282.171-.485l-.328-2.078a.672.672 0 0 0-.031-.188c-.032-.109-.344-.203-.532-.14L.406-8.891c-.219.063-.453.297-.39.5.03.125.312.188.5.125.718-.203.546-.218.593-.078.016.063 0 .094.016.235l.234 6.64c0 .438.141.375-.671.61-.22.062-.47.28-.407.484.047.125.344.188.422.172.219-.063.422-.156.64-.219l1.5-.422c.25-.078.548-.125.813-.203.078-.031.36-.25.297-.453-.047-.125-.312-.203-.562-.125-.907.25-.766.266-.813.11-.015-.063-.015-.173-.015-.25l-.11-2.985zm0 0"/></symbol><symbol overflow="visible" id="u"><path d="M1.813-2.281c.093-.14.359-.485.453-.625.328-.563.671-1.266.484-1.953-.266-.922-1.422-1.422-2.375-1.157-.938.282-1.469 1.391-1.266 2.063.11.375.657.453.766.422.156-.047.469-.438.39-.735-.109-.39-.718-.421-.578-.468.063-.422.391-.532.766-.641.703-.203 1.031.172 1.219.828.219.797-.156 1.39-.781 2.563L.187-.688C.126-.594.11-.421.22-.063l3.36-.968-.22-1.813-.593.172c.046.36.109.625.062.797-.031.063-.5.156-.61.188l-1.374.39.219.266zm0 0"/></symbol><symbol overflow="visible" id="v"><path d="M4.766-2.766h3.296c.172 0 .547-.14.547-.359 0-.219-.359-.375-.546-.375H4.921v-3.14c0-.173-.156-.548-.375-.548s-.39.36-.39.547V-3.5H1.03c-.172 0-.547.156-.547.375s.36.36.547.36h3.125V.39c0 .171.172.53.39.53.22 0 .376-.343.376-.53v-3.157zm0 0"/></symbol><symbol overflow="visible" id="w"><path d="M8.063-3.875c.171 0 .546-.14.546-.36 0-.218-.359-.374-.546-.374H1.03c-.172 0-.547.156-.547.359 0 .234.36.375.547.375zm0 2.219c.171 0 .546-.14.546-.36 0-.218-.359-.375-.546-.375H1.03c-.172 0-.547.157-.547.375 0 .22.36.36.547.36zm0 0"/></symbol><symbol overflow="visible" id="x"><path d="M5.266-2.313h-.407c-.062.36-.109.907-.234 1.11-.078.11-.64.062-1 .062H1.406l.11.25c.328-.265 1.046-1.03 1.359-1.328 1.828-1.672 2.547-2.39 2.547-3.578 0-1.375-1.25-2.453-2.64-2.453-1.376 0-2.36 1.344-2.36 2.375 0 .61.687.75.719.75.265 0 .718-.328.718-.703 0-.344-.375-.719-.718-.719-.094 0-.125 0 .062-.062.156-.594.656-1 1.422-1 1.016 0 1.469.718 1.469 1.812 0 1.016-.532 1.797-1.219 2.563L.422-.484V0h4.656l.36-2.313zm0 0"/></symbol><clipPath id="a"><path d="M165.121 91.117H420.22V268H165.12zm0 0"/></clipPath><clipPath id="b"><path d="M292 171h107v1H292zm0 0"/></clipPath><clipPath id="c"><path d="M165.121 91.117V285.7H420.22V91.117zm224.914 82.16h8.914v-3.52h-8.914l7.04 1.763zm-89.492-3.52h-8.914v3.52h8.914l-7.035-1.757zm0 0"/></clipPath><clipPath id="d"><path d="M165.121 92H420v193.7H165.121zm0 0"/></clipPath><clipPath id="e"><path d="M292 181h83v2h-83zm0 0"/></clipPath><clipPath id="f"><path d="M165.121 91.117V285.7H420.22V91.117zm201.164 92.719h8.914v-3.52h-8.914l7.035 1.758zm-65.742-3.52h-8.914v3.52h8.914l-7.035-1.762zm0 0"/></clipPath></defs><g clip-path="url(#a)" transform="translate(-159.947 -86.458)"><path d="M398.07 176.797c0 36.437-47.261 65.976-105.562 65.976-58.297 0-105.559-29.539-105.559-65.976 0-36.438 47.262-65.977 105.559-65.977 58.3 0 105.562 29.54 105.562 65.977zm0 0" fill="none" stroke="red" stroke-width="1.7594000000000003" stroke-miterlimit="10"/></g><path d="M134.909 24.362a2.344 2.344 0 0 1-2.348 2.344 2.343 2.343 0 1 1 0-4.688 2.344 2.344 0 0 1 2.348 2.344" fill-rule="evenodd"/><path d="M134.909 24.362a2.344 2.344 0 0 1-2.348 2.344 2.343 2.343 0 1 1 0-4.688 2.344 2.344 0 0 1 2.348 2.344zm0 0" fill="none" stroke="#000" stroke-width=".8797000000000001" stroke-miterlimit="10"/><path d="M29.522 90.338a2.52 2.52 0 1 1-5.041-.002 2.52 2.52 0 0 1 5.041.002" fill-rule="evenodd"/><path d="M29.522 90.338a2.52 2.52 0 1 1-5.041-.002 2.52 2.52 0 0 1 5.041.002zm0 0" fill="none" stroke="#000" stroke-width=".8797000000000001" stroke-miterlimit="10"/><path d="M134.909 156.315a2.346 2.346 0 1 1-4.693-.005 2.346 2.346 0 0 1 4.693.005" fill-rule="evenodd"/><path d="M134.909 156.315a2.346 2.346 0 1 1-4.693-.005 2.346 2.346 0 0 1 4.693.005zm0 0" fill="none" stroke="#000" stroke-width=".8797000000000001" stroke-miterlimit="10"/><path d="M240.647 90.338a2.521 2.521 0 1 1-5.043-.003 2.521 2.521 0 0 1 5.043.003" fill-rule="evenodd"/><path d="M240.647 90.338a2.521 2.521 0 1 1-5.043-.003 2.521 2.521 0 0 1 5.043.003zm0 0" fill="none" stroke="#000" stroke-width=".8797000000000001" stroke-miterlimit="10"/><path d="M50.167 90.338L195.9 37.558l19.059 52.78" fill="none" stroke="#00f" stroke-width=".8797000000000001" stroke-miterlimit="10"/><g clip-path="url(#b)" transform="translate(-159.947 -86.458)"><g clip-path="url(#c)" clip-rule="evenodd"><path d="M292.508 171.52H398.07" fill="none" stroke="#000" stroke-width=".43979999999999997" stroke-miterlimit="10"/></g></g><path d="M140.596 83.3l-7.035 1.761 7.035 1.758M230.088 86.819l7.04-1.758-7.04-1.762" fill="none" stroke="#000" stroke-width=".43979999999999997" stroke-miterlimit="10"/><path d="M13.807 90.338H251.32M132.561 11.167V169.51" fill="none" stroke="#000" stroke-width=".43979999999999997" stroke-miterlimit="10" stroke-dasharray="43.9838,21.6987,8.79676,21.6987"/><g clip-path="url(#d)" transform="translate(-159.947 -86.458)"><path d="M165.836 284.996h253.348V92.348H165.836zm0 0" fill="none" stroke="#fff" stroke-width=".43979999999999997" stroke-miterlimit="10"/></g><g clip-path="url(#e)" transform="translate(-159.947 -86.458)"><g clip-path="url(#f)" clip-rule="evenodd"><path d="M292.508 182.074h81.812" fill="none" stroke="#000" stroke-width=".43979999999999997" stroke-miterlimit="10"/></g></g><path d="M140.596 93.858l-7.035 1.758 7.035 1.761M206.338 97.377l7.036-1.761-7.036-1.758" fill="none" stroke="#000" stroke-width=".43979999999999997" stroke-miterlimit="10"/><path d="M217.6 90.338a2.639 2.639 0 0 1-2.64 2.637 2.639 2.639 0 1 1 0-5.277 2.642 2.642 0 0 1 2.64 2.64" fill-rule="evenodd"/><path d="M217.6 90.338a2.639 2.639 0 0 1-2.64 2.637 2.639 2.639 0 1 1 0-5.277 2.642 2.642 0 0 1 2.64 2.64zm0 0" fill="none" stroke="#000" stroke-width=".43979999999999997" stroke-miterlimit="10"/><path d="M52.807 90.338a2.639 2.639 0 0 1-2.64 2.637 2.639 2.639 0 1 1 0-5.277 2.642 2.642 0 0 1 2.64 2.64" fill-rule="evenodd"/><path d="M52.807 90.338a2.639 2.639 0 0 1-2.64 2.637 2.639 2.639 0 1 1 0-5.277 2.642 2.642 0 0 1 2.64 2.64zm0 0" fill="none" stroke="#000" stroke-width=".43979999999999997" stroke-miterlimit="10"/><path d="M134.909 90.338a2.346 2.346 0 1 1-4.693-.005 2.346 2.346 0 0 1 4.693.005" fill-rule="evenodd"/><path d="M134.909 90.338a2.346 2.346 0 1 1-4.693-.005 2.346 2.346 0 0 1 4.693.005zm0 0" fill="none" stroke="#000" stroke-width=".8797000000000001" stroke-miterlimit="10"/><path d="M198.538 37.557a2.639 2.639 0 1 1-5.278.003 2.639 2.639 0 0 1 5.278-.003" fill-rule="evenodd"/><path d="M198.538 37.557a2.639 2.639 0 1 1-5.278.003 2.639 2.639 0 0 1 5.278-.003zm0 0" fill="none" stroke="#000" stroke-width=".43979999999999997" stroke-miterlimit="10"/><use xlink:href="#g" x="358.664" y="118.737" width="595" height="842" fill="#211e1e" transform="translate(-159.947 -86.458)"/><use xlink:href="#h" x="279.449" y="189.99" width="595" height="842" fill="#211e1e" transform="translate(-159.947 -86.458)"/><use xlink:href="#i" x="335.014" y="195.269" width="595" height="842" fill="#211e1e" transform="translate(-159.947 -86.458)"/><use xlink:href="#j" x="374.454" y="189.99" width="595" height="842" fill="#211e1e" transform="translate(-159.947 -86.458)"/><use xlink:href="#k" x="382.014" y="191.791" width="595" height="842" fill="#211e1e" transform="translate(-159.947 -86.458)"/><use xlink:href="#j" x="205.556" y="192.63" width="595" height="842" fill="#211e1e" transform="translate(-159.947 -86.458)"/><use xlink:href="#l" x="213.116" y="194.43" width="595" height="842" fill="#211e1e" transform="translate(-159.947 -86.458)"/><use xlink:href="#m" x="401.179" y="171.517" width="595" height="842" fill="#211e1e" transform="translate(-159.947 -86.458)"/><use xlink:href="#k" x="408.019" y="173.317" width="595" height="842" fill="#211e1e" transform="translate(-159.947 -86.458)"/><use xlink:href="#m" x="171.584" y="171.517" width="595" height="842" fill="#211e1e" transform="translate(-159.947 -86.458)"/><use xlink:href="#l" x="178.423" y="173.317" width="595" height="842" fill="#211e1e" transform="translate(-159.947 -86.458)"/><use xlink:href="#m" x="295.617" y="105.542" width="595" height="842" fill="#211e1e" transform="translate(-159.947 -86.458)"/><use xlink:href="#n" x="302.458" y="107.342" width="595" height="842" fill="#211e1e" transform="translate(-159.947 -86.458)"/><use xlink:href="#m" x="295.617" y="255.967" width="595" height="842" fill="#211e1e" transform="translate(-159.947 -86.458)"/><use xlink:href="#o" x="302.458" y="257.767" width="595" height="842" fill="#211e1e" transform="translate(-159.947 -86.458)"/><use xlink:href="#p" x="335.909" y="168.879" width="595" height="842" fill="#211e1e" transform="translate(-159.947 -86.458)"/><use xlink:href="#q" x="334.913" y="153.045" width="595" height="842" fill="#00f" transform="translate(-159.947 -86.458)"/><use xlink:href="#g" x="338.273" y="153.045" width="595" height="842" fill="#00f" transform="translate(-159.947 -86.458)"/><use xlink:href="#j" x="347.513" y="153.045" width="595" height="842" fill="#00f" transform="translate(-159.947 -86.458)"/><use xlink:href="#k" x="355.073" y="154.845" width="595" height="842" fill="#00f" transform="translate(-159.947 -86.458)"/><use xlink:href="#q" x="359.633" y="153.045" width="595" height="842" fill="#00f" transform="translate(-159.947 -86.458)"/><use xlink:href="#r" x="261.541" y="151.588" width="595" height="842" fill="#00f" transform="translate(-159.947 -86.458)"/><use xlink:href="#s" x="264.771" y="150.662" width="595" height="842" fill="#00f" transform="translate(-159.947 -86.458)"/><use xlink:href="#t" x="273.653" y="148.115" width="595" height="842" fill="#00f" transform="translate(-159.947 -86.458)"/><use xlink:href="#u" x="281.416" y="147.761" width="595" height="842" fill="#00f" transform="translate(-159.947 -86.458)"/><use xlink:href="#r" x="285.303" y="144.774" width="595" height="842" fill="#00f" transform="translate(-159.947 -86.458)"/><use xlink:href="#q" x="239.907" y="277.079" width="595" height="842" fill="#00f" transform="translate(-159.947 -86.458)"/><use xlink:href="#g" x="243.267" y="277.079" width="595" height="842" fill="#00f" transform="translate(-159.947 -86.458)"/><use xlink:href="#j" x="252.507" y="277.079" width="595" height="842" fill="#00f" transform="translate(-159.947 -86.458)"/><use xlink:href="#k" x="260.067" y="278.879" width="595" height="842" fill="#00f" transform="translate(-159.947 -86.458)"/><use xlink:href="#q" x="264.747" y="277.079" width="595" height="842" fill="#00f" transform="translate(-159.947 -86.458)"/><use xlink:href="#v" x="270.627" y="277.079" width="595" height="842" fill="#00f" transform="translate(-159.947 -86.458)"/><use xlink:href="#q" x="282.388" y="277.079" width="595" height="842" fill="#00f" transform="translate(-159.947 -86.458)"/><use xlink:href="#g" x="285.748" y="277.079" width="595" height="842" fill="#00f" transform="translate(-159.947 -86.458)"/><use xlink:href="#j" x="294.988" y="277.079" width="595" height="842" fill="#00f" transform="translate(-159.947 -86.458)"/><use xlink:href="#l" x="302.547" y="278.879" width="595" height="842" fill="#00f" transform="translate(-159.947 -86.458)"/><use xlink:href="#q" x="307.227" y="277.079" width="595" height="842" fill="#00f" transform="translate(-159.947 -86.458)"/><use xlink:href="#w" x="313.827" y="277.079" width="595" height="842" fill="#00f" transform="translate(-159.947 -86.458)"/><use xlink:href="#x" x="326.307" y="277.079" width="595" height="842" fill="#00f" transform="translate(-159.947 -86.458)"/><use xlink:href="#p" x="332.188" y="277.079" width="595" height="842" fill="#00f" transform="translate(-159.947 -86.458)"/></svg>